<svg width="15" height="13" viewBox="0 0 15 13" fill="none" xmlns="http://www.w3.org/2000/svg">
<g clip-path="url(#clip0_68_1111)">
<path d="M12.699 1.53768V0.953707H11.3812V1.51695H10.2589V0.746379C10.2589 0.33518 9.93201 0 9.53096 0H5.03173C4.63067 0 4.30376 0.33518 4.30376 0.746379V1.51349H2.12323C0.9504 1.51349 0 2.48793 0 3.69043V10.0969C0 11.2994 0.9504 12.2738 2.12323 12.2738H12.3822C13.555 12.2738 14.5054 11.2994 14.5054 10.0969V3.68698C14.5054 2.61233 13.737 1.69663 12.699 1.53768ZM7.2527 9.89989C5.63162 9.89989 4.31724 8.55226 4.31724 6.89019C4.31724 5.22811 5.63162 3.88048 7.2527 3.88048C8.87377 3.88048 10.1881 5.22811 10.1881 6.89019C10.1881 8.55226 8.87377 9.89989 7.2527 9.89989Z" fill="black"/>
</g>
<defs>
<clipPath id="clip0_68_1111">
<rect width="14.5054" height="12.2738" fill="white"/>
</clipPath>
</defs>
</svg>
