<svg width="24" height="24" viewBox="0 0 24 24" fill="none" xmlns="http://www.w3.org/2000/svg">
<g clip-path="url(#clip0_87_476)">
<path d="M12 0C18.6274 0 24 5.37257 24 12C24 18.6274 18.6274 24 12 24H1.728C1.15886 24 0.699429 23.5406 0.699429 22.9714C0.699429 22.8 0.740571 22.632 0.822857 22.4811L2.51657 19.3543C0.939429 17.3211 0 14.7703 0 12C0 5.37257 5.37257 0 12 0ZM16.944 14.1771C16.4434 13.9097 15.8194 14.0983 15.552 14.5989C14.9451 15.7269 13.7177 16.4571 12.3429 16.4571C10.968 16.4571 9.74057 15.7269 9.13371 14.6023C8.86286 14.1017 8.24229 13.9166 7.74171 14.184C7.24114 14.4549 7.056 15.0754 7.32343 15.576C8.28686 17.3691 10.2137 18.5143 12.3429 18.5143C14.472 18.5143 16.3989 17.3691 17.3657 15.5726C17.6331 15.072 17.4446 14.448 16.944 14.1806V14.1771Z" fill="#454545"/>
</g>
<defs>
<clipPath id="clip0_87_476">
<rect width="24" height="24" fill="white"/>
</clipPath>
</defs>
</svg>
