<svg width="24" height="24" viewBox="0 0 24 24" fill="none" xmlns="http://www.w3.org/2000/svg">
<g clip-path="url(#clip0_87_473)">
<path d="M23.0869 12.0059C23.0869 16.6984 20.2059 20.918 15.7646 22.4487C13.9355 23.087 12.0443 23.2229 10.2802 22.9481C9.87245 22.8831 9.74539 22.3571 10.0763 22.1177C12.8835 20.0227 15.3775 17.6203 16.4945 16.5034C17.576 15.4337 19.9842 12.9308 22.1088 10.0764C22.3571 9.74541 22.883 9.86361 22.9392 10.2803C23.0397 10.8446 23.0869 11.415 23.0869 12.0059Z" fill="#454545"/>
<path d="M23.4356 0.573261C22.3364 -0.53484 20.1852 -0.0354559 16.9082 2.07732C15.413 1.33859 13.7493 0.921944 12.0059 0.921944C5.89215 0.924899 0.9249 5.89215 0.9249 12.0059C0.9249 13.7434 1.34155 15.413 2.08028 16.9082C-0.0354545 20.1852 -0.534839 22.3275 0.573262 23.4356C0.960359 23.8316 1.47747 24 2.08619 24C5.42822 24 11.607 18.7934 15.2002 15.2002C19.4494 10.951 25.968 3.09382 23.4386 0.573261H23.4356ZM1.88525 22.1443C1.7641 21.9611 1.80252 20.9446 3.15883 18.6723C3.76755 19.4849 4.50628 20.2147 5.34844 20.8412C3.49274 21.9493 2.24576 22.3659 1.88525 22.1443ZM20.8412 5.34548C20.2147 4.50628 19.4849 3.76755 18.6723 3.15588C20.9446 1.80843 21.9493 1.76115 22.1266 1.86161C22.3571 2.23098 21.9522 3.48683 20.8441 5.34253L20.8412 5.34548Z" fill="#454545"/>
</g>
<defs>
<clipPath id="clip0_87_473">
<rect width="24.003" height="24" fill="white"/>
</clipPath>
</defs>
</svg>
