<svg width="15" height="15" viewBox="0 0 15 15" fill="none" xmlns="http://www.w3.org/2000/svg">
<g clip-path="url(#clip0_68_1179)">
<path d="M11.4337 2H3.56627C2.71084 2 2 2.71084 2 3.56626V9.85542C2 10.4819 2.39759 11.0723 2.93976 11.3133C3.06024 11.3494 3.18072 11.4337 3.18072 11.5904V12.2169C3.18072 12.494 3.33735 12.7711 3.57831 12.8795C3.6988 12.9639 3.81928 13 3.9759 13C4.09639 13 4.25301 12.9639 4.37349 12.8795L6.73494 11.4699C6.73494 11.4699 6.85542 11.4337 6.92771 11.4337H11.4458C12.3133 11.4337 13.012 10.7229 13.012 9.86747V3.56626C13.012 2.6988 12.3012 2 11.4458 2H11.4337ZM10.6506 9.07229H4.36145C4.12048 9.07229 3.96386 8.91566 3.96386 8.6747C3.96386 8.43373 4.12048 8.27711 4.36145 8.27711H10.6506C10.8916 8.27711 11.0482 8.43373 11.0482 8.6747C11.0482 8.91566 10.8916 9.07229 10.6506 9.07229ZM10.6506 7.10843H4.36145C4.12048 7.10843 3.96386 6.95181 3.96386 6.71084C3.96386 6.46988 4.12048 6.31325 4.36145 6.31325H10.6506C10.8916 6.31325 11.0482 6.46988 11.0482 6.71084C11.0482 6.95181 10.8916 7.10843 10.6506 7.10843ZM10.6506 5.14458H4.36145C4.12048 5.14458 3.96386 4.98795 3.96386 4.74699C3.96386 4.50602 4.12048 4.3494 4.36145 4.3494H10.6506C10.8916 4.3494 11.0482 4.50602 11.0482 4.74699C11.0482 4.98795 10.8916 5.14458 10.6506 5.14458Z" fill="black"/>
</g>
<defs>
<clipPath id="clip0_68_1179">
<rect width="11" height="11" fill="white" transform="translate(2 2)"/>
</clipPath>
</defs>
</svg>
