<svg width="20" height="20" viewBox="0 0 20 20" fill="none" xmlns="http://www.w3.org/2000/svg">
<g clip-path="url(#clip0_68_1106)">
<path fill-rule="evenodd" clip-rule="evenodd" d="M11.0395 2.1874C10.723 1.94119 10.2892 1.94119 9.97261 2.1874L8.67123 3.19568C8.49537 3.32464 8.28434 3.39499 8.06158 3.37154L6.4202 3.23085C6.02158 3.19568 5.65813 3.43016 5.52917 3.80533L4.96641 5.37637C4.89606 5.57568 4.74365 5.75154 4.55606 5.85706L3.09054 6.64257C2.73882 6.83016 2.56296 7.21706 2.65675 7.60395L3.03192 9.24533C3.07882 9.45637 3.04365 9.67913 2.93813 9.86671L2.10572 11.344C1.91813 11.684 1.97675 12.1177 2.25813 12.3874L3.45399 13.5598C3.60641 13.7122 3.7002 13.9115 3.71192 14.1343L3.80572 15.8109C3.82917 16.2095 4.11055 16.5377 4.49744 16.6198L6.11537 16.9481C6.32641 16.995 6.51399 17.1122 6.64296 17.2881L7.61606 18.6364C7.85054 18.9646 8.27261 19.0819 8.63606 18.9412L10.1719 18.3433C10.3712 18.2612 10.6057 18.2612 10.805 18.3433L12.3409 18.9412C12.7161 19.0819 13.1381 18.9646 13.3609 18.6364L14.334 17.2881C14.463 17.1122 14.6505 16.9833 14.8616 16.9481L16.4795 16.6198C16.8664 16.5377 17.1478 16.2095 17.1712 15.8109L17.265 14.1343C17.2768 13.9233 17.3705 13.7122 17.523 13.5598L18.7188 12.3874C19.0002 12.1177 19.0588 11.684 18.8712 11.344L18.0505 9.87844C17.945 9.69085 17.9099 9.46809 17.9568 9.25706L18.3319 7.61568C18.4257 7.22878 18.2381 6.84188 17.8981 6.6543L16.4326 5.86878C16.245 5.76326 16.0926 5.59913 16.0223 5.38809L15.4595 3.81706C15.3305 3.44188 14.9554 3.2074 14.5685 3.24257L12.9271 3.38326C12.7043 3.40671 12.4933 3.33637 12.3174 3.2074L11.0161 2.19913L11.0395 2.1874ZM14.5568 8.50671C14.8616 8.14326 14.8147 7.61568 14.463 7.31085C14.0995 7.00602 13.5719 7.05292 13.2671 7.40464L9.55054 11.7895L7.7333 9.91361C7.40503 9.57361 6.86572 9.57361 6.53744 9.89016C6.19744 10.2184 6.19744 10.7577 6.51399 11.0977L9.63261 14.3219L14.5685 8.50671H14.5568Z" fill="black"/>
</g>
<defs>
<clipPath id="clip0_68_1106">
<rect width="17" height="17" fill="white" transform="translate(2 2)"/>
</clipPath>
</defs>
</svg>
