<svg width="62" height="62" viewBox="0 0 62 62" fill="none" xmlns="http://www.w3.org/2000/svg">
<g clip-path="url(#clip0_68_1125)">
<path fill-rule="evenodd" clip-rule="evenodd" d="M32.7418 0.875177C31.6022 -0.0111675 30.0406 -0.0111675 28.901 0.875177L24.216 4.50497C23.5829 4.96925 22.8232 5.22249 22.0212 5.13807L16.1123 4.63159C14.6772 4.50497 13.3688 5.34911 12.9046 6.69973L10.8786 12.3555C10.6254 13.073 10.0767 13.7061 9.40138 14.0859L4.12552 16.9138C2.85932 17.5891 2.22621 18.9819 2.56387 20.3748L3.91449 26.2837C4.08332 27.0435 3.95669 27.8454 3.57683 28.5207L0.580143 33.8388C-0.0951669 35.0628 0.115868 36.6244 1.12883 37.5952L5.43394 41.8159C5.98263 42.3646 6.32028 43.0821 6.36249 43.884L6.70014 49.9196C6.78456 51.3546 7.79752 52.5364 9.19035 52.8319L15.0149 54.0137C15.7746 54.1825 16.4499 54.6046 16.9142 55.2377L20.4174 60.0915C21.2615 61.2732 22.781 61.6953 24.0894 61.1888L29.6185 59.0363C30.336 58.7408 31.1801 58.7408 31.8977 59.0363L37.4268 61.1888C38.7774 61.6953 40.2968 61.2732 41.0988 60.0915L44.6019 55.2377C45.0662 54.6046 45.7415 54.1403 46.5012 54.0137L52.3258 52.8319C53.7186 52.5364 54.7316 51.3546 54.816 49.9196L55.1537 43.884C55.1959 43.1243 55.5335 42.3646 56.0822 41.8159L60.3873 37.5952C61.4003 36.6244 61.6113 35.0628 60.936 33.8388L57.9815 28.5629C57.6017 27.8876 57.475 27.0857 57.6439 26.3259L58.9945 20.417C59.3321 19.0241 58.6568 17.6313 57.4328 16.956L52.157 14.1281C51.4817 13.7483 50.933 13.1574 50.6797 12.3977L48.6538 6.74194C48.1895 5.39131 46.8389 4.54718 45.4461 4.6738L39.5371 5.18028C38.7352 5.26469 37.9755 5.01145 37.3423 4.54718L32.6574 0.917384L32.7418 0.875177ZM45.4039 23.6247C46.5012 22.3163 46.3324 20.417 45.0662 19.3196C43.7578 18.2222 41.8585 18.391 40.7611 19.6572L27.3815 35.4426L20.8395 28.6895C19.6577 27.4655 17.7161 27.4655 16.5343 28.6051C15.3103 29.7869 15.3103 31.7284 16.4499 32.9524L27.677 44.5593L45.4461 23.6247H45.4039Z" fill="#3CB9FF"/>
</g>
<defs>
<clipPath id="clip0_68_1125">
<rect width="61.2" height="61.2" fill="white" transform="translate(0.200195 0.200165)"/>
</clipPath>
</defs>
</svg>
