<svg width="24" height="24" viewBox="0 0 24 24" fill="none" xmlns="http://www.w3.org/2000/svg">
<g clip-path="url(#clip0_68_1120)">
<path fill-rule="evenodd" clip-rule="evenodd" d="M14.3595 4.41039L3.02335 15.7616C2.94382 15.8412 2.8961 15.9421 2.87489 16.0483L2.00532 21.3894C1.9576 21.6761 2.15378 21.9522 2.4401 21.9947C2.49313 22.0053 2.55145 22.0053 2.60978 21.9947L7.96503 21.1505C8.07637 21.1346 8.17711 21.0815 8.25665 21.0018L19.5928 9.65064L14.3595 4.41039ZM15.1071 3.66178L20.3404 8.90203L21.2259 8.01538C22.2598 6.98008 22.2598 5.30766 21.2259 4.27235L19.7307 2.77514C18.6967 1.73983 17.0265 1.73983 15.9926 2.77514L15.1071 3.66178Z" fill="black"/>
</g>
<defs>
<clipPath id="clip0_68_1120">
<rect width="20" height="20" fill="white" transform="translate(2 2)"/>
</clipPath>
</defs>
</svg>
