<svg width="24" height="24" viewBox="0 0 24 24" fill="none" xmlns="http://www.w3.org/2000/svg">
<path d="M8.52101 3.62043C8.90757 2.50715 9.36135 1.63365 9.86555 0.999939C6.51259 1.66791 3.70585 3.90303 2.19324 6.92602H7.70588C7.90756 5.71854 8.18487 4.60526 8.52941 3.62043H8.52101Z" fill="#454545"/>
<path d="M16.3027 6.92602H21.8153C20.2943 3.9116 17.4875 1.67647 14.1346 0.999939C14.6388 1.63365 15.0926 2.50715 15.4791 3.62043C15.8237 4.59669 16.0926 5.70997 16.3027 6.92602Z" fill="#454545"/>
<path d="M7.51259 15.7209C7.37813 14.5392 7.3025 13.2889 7.3025 12.0043C7.3025 10.7197 7.37813 9.46945 7.51259 8.28766H1.62179C1.21843 9.45232 0.999939 10.7026 0.999939 12.0043C0.999939 13.306 1.21843 14.5563 1.62179 15.7209H7.51259Z" fill="#454545"/>
<path d="M7.70588 17.0739H2.19324C3.70585 20.0883 6.51259 22.3235 9.86555 23C9.36135 22.3663 8.90757 21.4928 8.52101 20.3795C8.17647 19.4032 7.89916 18.29 7.69747 17.0739H7.70588Z" fill="#454545"/>
<path d="M16.3027 17.0739C16.101 18.2814 15.8237 19.3947 15.4791 20.3795C15.0926 21.4928 14.6388 22.3663 14.1346 23C17.4875 22.332 20.3027 20.0969 21.8069 17.0739H16.2943H16.3027Z" fill="#454545"/>
<path d="M16.6977 12.0043C16.6977 13.2889 16.6221 14.5392 16.4876 15.7209H22.3784C22.7818 14.5563 23.0003 13.306 23.0003 12.0043C23.0003 10.7026 22.7818 9.45232 22.3784 8.28766H16.4876C16.6221 9.46945 16.6977 10.7197 16.6977 12.0043Z" fill="#454545"/>
<path d="M9.05884 6.92621H14.9496C14.7648 5.89 14.5211 4.92231 14.2269 4.08306C13.5967 2.27612 12.7479 1.16284 12 1.16284C11.2521 1.16284 10.4118 2.28469 9.78153 4.08306C9.48741 4.93087 9.24371 5.89 9.05884 6.92621Z" fill="#454545"/>
<path d="M12 22.8458C12.7395 22.8458 13.5883 21.7239 14.2269 19.9255C14.5211 19.0777 14.7648 18.1186 14.9496 17.0824H9.05884C9.24371 18.1186 9.48741 19.0863 9.78153 19.9255C10.4118 21.7325 11.2605 22.8458 12 22.8458Z" fill="#454545"/>
<path d="M15.3697 12.0043C15.3697 10.7197 15.2941 9.46945 15.1512 8.28766H8.85704C8.71418 9.46089 8.63855 10.7112 8.63855 12.0043C8.63855 13.2974 8.71418 14.5392 8.85704 15.7209H15.1512C15.2941 14.5477 15.3697 13.2974 15.3697 12.0043Z" fill="#454545"/>
</svg>
