<svg width="20" height="20" viewBox="0 0 20 20" fill="none" xmlns="http://www.w3.org/2000/svg">
<g clip-path="url(#clip0_68_1096)">
<g clip-path="url(#clip1_68_1096)">
<path d="M10.0021 3.03934C8.19676 3.03934 6.7301 4.5701 6.7301 6.41955C6.7301 8.26899 8.19943 9.79976 10.0021 9.79976C11.8048 9.79976 13.2741 8.27172 13.2741 6.41955C13.2741 4.56738 11.8074 3.03934 10.0021 3.03934ZM8.2981 11.3332C7.16477 11.3332 6.2021 11.9379 5.58077 12.766C4.95943 13.594 4.6261 14.6426 4.6261 15.7131V16.3041C4.6261 17.4073 5.50877 18.3334 6.5941 18.3334H13.4021C14.4874 18.3334 15.3728 17.4073 15.3728 16.3041V15.7131C15.3728 14.6426 15.0394 13.594 14.4181 12.766C13.7968 11.9379 12.8314 11.3332 11.6981 11.3332H8.2981Z" fill="black"/>
<path d="M15.9142 2.58707C14.8182 2.58707 13.9275 3.52677 13.9275 4.6408C13.9275 5.75482 14.8182 6.69453 15.9142 6.69453C17.0102 6.69453 17.9008 5.75482 17.9008 4.6408C17.9008 3.52677 17.0102 2.58707 15.9142 2.58707ZM15.0715 8.94709C14.6928 8.94437 14.3595 9.2004 14.2582 9.57356C14.1595 9.94672 14.3195 10.3417 14.6475 10.5351C15.5968 11.1016 16.3008 12.4036 16.5835 13.4822C16.6795 13.8553 17.0102 14.1141 17.3888 14.1141H18.4475C19.3168 14.1141 19.9995 13.3569 19.9995 12.4935V12.104C19.9995 11.344 19.7755 10.6113 19.3408 10.0121C18.9062 9.41286 18.1968 8.94437 17.3675 8.94437H15.0715V8.94709Z" fill="black"/>
<path d="M4.09016 2.5C2.94616 2.5 2.01549 3.47784 2.01549 4.64362C2.01549 5.80939 2.94616 6.78723 4.09016 6.78723C5.23416 6.78723 6.16483 5.80939 6.16483 4.64362C6.16483 3.47784 5.23416 2.5 4.09016 2.5ZM2.63683 8.94719C1.80483 8.94719 1.09816 9.41568 0.663493 10.0149C0.22616 10.6141 -0.00317383 11.3496 -0.00317383 12.1068V12.4963C-0.00317383 13.3624 0.684826 14.1169 1.55416 14.1169H2.39683C2.77549 14.1169 3.10616 13.8582 3.20483 13.485C3.46349 12.4963 4.36749 11.1262 5.35149 10.5379C5.67949 10.3445 5.83949 9.95226 5.74083 9.5791C5.64216 9.20595 5.31149 8.94719 4.93283 8.94991H2.63683V8.94719Z" fill="black"/>
</g>
</g>
<defs>
<clipPath id="clip0_68_1096">
<rect width="20" height="20" fill="white"/>
</clipPath>
<clipPath id="clip1_68_1096">
<rect width="20" height="15.8333" fill="white" transform="translate(-0.000183105 2.5)"/>
</clipPath>
</defs>
</svg>
