<svg width="24" height="24" viewBox="0 0 24 24" fill="none" xmlns="http://www.w3.org/2000/svg">
<g clip-path="url(#clip0_87_468)">
<path d="M15.0556 17.9563C15.0556 16.2193 13.6836 14.804 12 14.804C10.3164 14.804 8.94446 16.2193 8.94446 17.9563V23H15.0556V17.9563Z" fill="#454545"/>
<path d="M23 9.87382C23 8.11483 22.0956 6.45671 20.635 5.54254L14.5453 1.73454C12.9747 0.754175 11.0253 0.754175 9.45778 1.73454L3.365 5.54254C1.90444 6.45356 1 8.11483 1 9.87382V18.9872C1 21.2001 2.74472 23.0001 4.88972 23.0001H7.11111V17.9564C7.11111 15.176 9.305 12.9126 12 12.9126C14.695 12.9126 16.8889 15.176 16.8889 17.9564V23.0001H19.1103C21.2553 23.0001 23 21.2001 23 18.9872V9.87382Z" fill="#454545"/>
</g>
<defs>
<clipPath id="clip0_87_468">
<rect width="22" height="22" fill="white" transform="translate(1 1)"/>
</clipPath>
</defs>
</svg>
