<svg width="20" height="16" viewBox="0 0 20 16" fill="none" xmlns="http://www.w3.org/2000/svg">
<g clip-path="url(#clip0_68_1113)">
<path d="M9.51865 2.98408C9.19909 2.81243 8.90682 2.60364 8.71689 2.28992C8.50567 1.94069 8.46583 1.4311 8.58754 1.04608C8.71444 0.644109 9.04846 0.301332 9.43378 0.126715C9.79673 -0.037678 10.2036 -0.0390233 10.5737 0.103845C10.9841 0.262319 11.3342 0.596755 11.4966 1.00195C11.6371 1.3528 11.6439 1.74993 11.4892 2.09755C11.2864 2.5536 10.9421 2.74005 10.5019 2.91924C10.1676 3.04489 9.86904 3.02767 9.51865 2.98435V2.98408Z" fill="#60298B"/>
<path d="M3.1262 13.7434C7.67395 13.7921 12.2266 13.7456 16.7746 13.7469C16.8407 14.3087 16.8218 14.8893 16.83 15.4549L3.12292 15.4441L3.1262 13.7434Z" fill="#60298B"/>
<path d="M1.20261 6.00659C0.734868 5.79834 0.328531 5.53924 0.127956 5.04741C-0.0652522 4.5736 -0.0346883 3.97334 0.187446 3.51352C0.394844 3.08438 0.786445 2.78734 1.24026 2.64286C1.72083 2.48977 2.22459 2.52098 2.67213 2.75721C3.12459 2.99586 3.48671 3.42527 3.61142 3.91926C3.74132 4.43477 3.58659 4.96615 3.30333 5.40498C3.23429 5.51207 3.15351 5.60947 3.06946 5.70525C3.77325 6.37654 4.65633 6.87026 5.66494 6.84793C6.6247 6.82667 7.53043 6.30309 8.16927 5.62104C8.86105 4.88275 9.20735 3.92356 9.51927 2.98402C9.86939 3.02761 10.1679 3.04483 10.5025 2.91891C10.9555 4.35352 11.4298 5.7152 12.8745 6.45295C13.6489 6.84847 14.5847 6.93456 15.4148 6.65959C16.0545 6.44784 16.5383 6.07466 16.9979 5.59951C16.6513 5.09745 16.3749 4.57683 16.5009 3.94724C16.5956 3.47478 16.9103 3.07147 17.324 2.8234C17.7421 2.57264 18.2398 2.49058 18.7146 2.61461C19.172 2.73434 19.5732 3.02465 19.7948 3.44061C20.0155 3.85522 20.0625 4.40221 19.9176 4.84831C19.7645 5.31942 19.3969 5.68776 18.951 5.89924C18.8516 5.94632 18.7507 5.99126 18.6502 6.03565C18.1339 8.41006 17.366 10.7425 16.8923 13.1271L2.97722 13.1293C2.77556 12.0168 2.45846 10.9169 2.17983 9.82045C1.85673 8.55024 1.55655 7.26846 1.20315 6.00632L1.20261 6.00659Z" fill="#904EC4"/>
<path d="M6.05357 9.04727C6.22795 9.06126 6.39578 9.07983 6.55815 9.14844C6.83241 9.26413 7.04935 9.49471 7.14378 9.77345C7.23901 10.0543 7.20381 10.3533 7.06354 10.6126C6.87743 10.9562 6.59908 11.0698 6.23914 11.1838C5.98617 11.1752 5.7553 11.1594 5.53016 11.0329C5.26682 10.8849 5.07771 10.6307 5.00976 10.3404C4.9429 10.0552 5.0043 9.76 5.17513 9.52135C5.39481 9.21436 5.69499 9.11454 6.05384 9.04754L6.05357 9.04727Z" fill="#60298B"/>
<path d="M9.8265 9.04273C10.0072 9.04165 10.1914 9.04649 10.3638 9.10461C10.6433 9.19851 10.8853 9.39573 11.0136 9.66021C11.1386 9.91796 11.1467 10.2153 11.0422 10.4811C10.8861 10.8777 10.584 11.041 10.2036 11.1944C9.96321 11.2022 9.7157 11.1728 9.50012 11.062C9.22913 10.9226 9.01573 10.6805 8.93032 10.3893C8.85282 10.1257 8.88256 9.84586 9.01682 9.60505C9.19775 9.28084 9.48265 9.1482 9.82677 9.04273H9.8265Z" fill="#60298B"/>
<path d="M13.6623 9.09393C13.8236 9.08666 13.9996 9.07052 14.1587 9.10038C14.4575 9.15662 14.7492 9.37105 14.898 9.63015C15.0456 9.88764 15.0699 10.1868 14.9817 10.4675C14.8546 10.8724 14.5869 11.0634 14.2171 11.2461C14.0217 11.2636 13.8271 11.2854 13.6361 11.2286C13.3411 11.1409 13.0909 10.9375 12.9536 10.6649C12.8144 10.3886 12.8024 10.0736 12.9091 9.78459C13.045 9.41599 13.3215 9.26074 13.6623 9.09393Z" fill="#60298B"/>
</g>
<defs>
<clipPath id="clip0_68_1113">
<rect width="20" height="15.4545" fill="white"/>
</clipPath>
</defs>
</svg>
