<svg width="20" height="20" viewBox="0 0 20 20" fill="none" xmlns="http://www.w3.org/2000/svg">
<g clip-path="url(#clip0_68_1102)">
<path d="M10.6481 8.76724C10.3279 8.20927 10.3279 7.51822 10.6481 6.95513L12.9559 2.93165C13.2711 2.35833 13.876 2 14.5267 2C15.1774 2 15.7823 2.35833 16.0974 2.93165L18.3951 6.95002C18.7153 7.50798 18.7153 8.20416 18.3951 8.76212C18.0748 9.32008 17.475 9.66817 16.8345 9.66305H12.2189C11.5733 9.66817 10.9735 9.33032 10.6481 8.76724ZM18.1409 12.3044C17.17 11.3625 15.6857 11.2141 14.547 11.941C13.4084 11.2141 11.924 11.3625 10.9531 12.3044C10.4194 12.8419 10.1144 13.5739 10.1144 14.3366C10.1144 15.0994 10.4143 15.8314 10.9531 16.3689L12.5442 17.9711C13.6625 19.0819 15.4569 19.0819 16.5803 17.9711L18.1714 16.3689C18.7052 15.8314 19.0102 15.0994 19.0102 14.3366C19.0102 13.5739 18.7102 12.8419 18.1714 12.3044H18.146H18.1409ZM6.01214 2H3.64332C2.18949 2 1.01017 3.18759 1.01017 4.65161V7.03192C1.01017 8.49594 2.18949 9.68353 3.64332 9.68353H6.01214C7.46089 9.68353 8.63513 8.49594 8.63513 7.03192V4.65161C8.63513 3.19271 7.46089 2.00512 6.01214 2ZM4.82773 11.3062C3.81615 11.3062 2.84016 11.7055 2.12341 12.4273C1.40666 13.1491 1 14.1268 1 15.1454C1 16.1641 1.40158 17.1418 2.11324 17.8687C2.82999 18.5905 3.8009 18.9949 4.81248 19C5.82406 19 6.79497 18.5956 7.51172 17.8738C8.22847 17.1521 8.63005 16.1743 8.63005 15.1557C8.63005 14.137 8.22847 13.1593 7.5168 12.4426C6.80514 11.7209 5.83423 11.3165 4.82265 11.3114L4.82773 11.3062Z" fill="black"/>
</g>
<defs>
<clipPath id="clip0_68_1102">
<rect width="18" height="17" fill="white" transform="translate(1 2)"/>
</clipPath>
</defs>
</svg>
