<svg width="23" height="24" viewBox="0 0 23 24" fill="none" xmlns="http://www.w3.org/2000/svg">
<g clip-path="url(#clip0_87_489)">
<path d="M11.8481 11.8727C10.2512 11.9598 8.71521 11.4739 7.50401 10.425C3.47119 6.92658 5.78194 0.35858 11.0361 0.0167758H11.053C14.2874 -0.227849 17.1564 2.32563 17.3797 5.49904C17.6097 8.75288 15.1467 11.6381 11.8481 11.8727Z" fill="#454545"/>
<path d="M15.8843 23.9866H3.71482C3.2547 23.9866 2.71338 24.0268 2.26003 23.9631C1.0353 23.7822 0.0879894 22.74 0.0135582 21.5169C-0.250334 17.1639 2.56113 13.7559 7.01347 13.4845C7.51419 13.4443 8.03521 13.4845 8.53593 13.4845H14.2807C16.7843 13.4845 18.689 13.6051 20.6073 15.4817C22.2482 17.0868 22.8436 18.8629 22.8504 21.1148C22.8572 22.415 22.1907 23.5711 20.8678 23.8961C20.269 24.0435 19.3352 23.9866 18.6958 23.9866H15.8776H15.8843Z" fill="#454545"/>
</g>
<defs>
<clipPath id="clip0_87_489">
<rect width="22.8571" height="24" fill="white"/>
</clipPath>
</defs>
</svg>
