<svg width="24" height="24" viewBox="0 0 24 24" fill="none" xmlns="http://www.w3.org/2000/svg">
<path d="M21.1208 13.6798C21.5139 13.2509 22 12.7076 22 12C22 11.2924 21.5139 10.7491 21.1208 10.3202C20.9278 10.1058 20.6848 9.84132 20.6419 9.68406C20.599 9.50536 20.6705 9.15511 20.7348 8.84775C20.8635 8.26162 21.0064 7.58971 20.6633 7.00357C20.3131 6.396 19.6555 6.18871 19.0765 6.00286C18.7834 5.90279 18.4475 5.79557 18.3259 5.67405C18.2044 5.55254 18.0972 5.21658 17.9971 4.92352C17.8113 4.34453 17.604 3.68692 16.9964 3.33667C16.4031 2.99357 15.7384 3.13653 15.1523 3.26519C14.8449 3.32952 14.4946 3.401 14.3159 3.35811C14.1587 3.31523 13.8942 3.07219 13.6798 2.8792C13.2509 2.48606 12.7076 2 12 2C11.2924 2 10.7491 2.48606 10.3202 2.8792C10.1058 3.07219 9.84131 3.31523 9.68406 3.35811C9.50536 3.401 9.15511 3.32952 8.84775 3.26519C8.26162 3.13653 7.58971 2.99357 7.00357 3.33667C6.396 3.68692 6.18871 4.34453 6.00286 4.92352C5.90279 5.21658 5.79557 5.55254 5.67405 5.67405C5.55254 5.79557 5.21658 5.90279 4.92352 6.00286C4.34453 6.18871 3.68692 6.396 3.33667 7.00357C2.99357 7.59686 3.13653 8.26162 3.26519 8.84775C3.32952 9.15511 3.401 9.50536 3.35811 9.68406C3.31523 9.84132 3.07219 10.1058 2.8792 10.3202C2.48606 10.7491 2 11.2924 2 12C2 12.7076 2.48606 13.2509 2.8792 13.6798C3.07219 13.8942 3.31523 14.1587 3.35811 14.3159C3.401 14.4946 3.32952 14.8449 3.26519 15.1523C3.13653 15.7384 2.99357 16.4103 3.33667 16.9964C3.68692 17.604 4.34453 17.8113 4.92352 17.9971C5.21658 18.0972 5.55254 18.2044 5.67405 18.3259C5.79557 18.4475 5.90279 18.7834 6.00286 19.0765C6.18871 19.6555 6.396 20.3131 7.00357 20.6633C7.59685 21.0064 8.26876 20.8635 8.84775 20.7348C9.15511 20.6705 9.51251 20.599 9.68406 20.6419C9.84131 20.6848 10.1058 20.9278 10.3202 21.1208C10.7491 21.5139 11.2924 22 12 22C12.7076 22 13.2509 21.5139 13.6798 21.1208C13.8942 20.9278 14.1587 20.6848 14.3159 20.6419C14.4946 20.599 14.8449 20.6705 15.1523 20.7348C15.7455 20.8635 16.4103 21.0064 16.9964 20.6633C17.604 20.3131 17.8113 19.6555 17.9971 19.0765C18.0972 18.7834 18.2044 18.4475 18.3259 18.3259C18.4475 18.2044 18.7834 18.0972 19.0765 17.9971C19.6555 17.8113 20.3131 17.604 20.6633 16.9964C21.0064 16.4031 20.8635 15.7384 20.7348 15.1523C20.6705 14.8449 20.599 14.4946 20.6419 14.3159C20.6848 14.1587 20.9278 13.8942 21.1208 13.6798ZM12.0143 16.9964C9.26233 16.9964 7.01787 14.7591 7.01787 12C7.01787 9.24089 9.25518 7.00357 12.0143 7.00357C14.7734 7.00357 17.0107 9.24089 17.0107 12C17.0107 14.7591 14.7734 16.9964 12.0143 16.9964Z" fill="black"/>
</svg>
