<svg width="15" height="15" viewBox="0 0 15 15" fill="none" xmlns="http://www.w3.org/2000/svg">
<path fill-rule="evenodd" clip-rule="evenodd" d="M7.63158 3.63095C7.63158 3.48857 7.63158 3.41429 7.63158 3.35548C7.69789 2.08333 8.73684 1.065 10.0347 1C10.0979 1 10.1705 1 10.3158 1C10.4611 1 10.5368 1 10.5968 1C11.8947 1.0619 12.9337 2.08024 12.9968 3.35238C12.9968 3.41429 12.9968 3.48548 12.9968 3.62786C12.9968 3.77024 12.9968 3.84452 12.9968 3.90333C12.9337 5.17548 11.8947 6.19381 10.5968 6.25571C10.5337 6.25571 10.4611 6.25571 10.3158 6.25571C10.1705 6.25571 10.0947 6.25571 10.0347 6.25571C9.30211 6.22167 8.65474 5.88119 8.21579 5.36429C7.96 5.51595 7.69474 5.66762 7.46737 5.79762C7.09158 6.01119 6.60842 6.27119 6.21368 6.48167C6.29895 6.71381 6.35263 6.95833 6.36526 7.21833C6.36526 7.28024 6.36526 7.35143 6.36526 7.49381C6.36526 7.63619 6.36526 7.71048 6.36526 7.76929C6.35263 8.02619 6.29895 8.27071 6.21368 8.49976C6.62421 8.71952 7.15474 9.00429 7.55579 9.23333C7.75789 9.34786 7.98842 9.48095 8.21895 9.61714C8.65789 9.10333 9.30211 8.76905 10.0316 8.735C10.0947 8.735 10.1674 8.735 10.3126 8.735C10.4579 8.735 10.5337 8.735 10.5937 8.735C11.8916 8.7969 12.9305 9.81524 12.9937 11.0874C12.9937 11.1493 12.9937 11.2205 12.9937 11.3629C12.9937 11.5052 12.9937 11.5795 12.9937 11.6383C12.9305 12.9105 11.8916 13.9288 10.5937 13.9907C10.5305 13.9907 10.4579 13.9907 10.3126 13.9907C10.1674 13.9907 10.0916 13.9907 10.0316 13.9907C8.73368 13.9288 7.69474 12.9105 7.63158 11.6383C7.63158 11.5764 7.63158 11.5052 7.63158 11.3629C7.63158 11.2205 7.63158 11.1462 7.63158 11.0874C7.63474 11.0193 7.64105 10.9512 7.65053 10.8831C7.37263 10.7314 7.08526 10.5767 6.84526 10.4405C6.43789 10.2114 5.92 9.9019 5.51895 9.66048C5.47789 9.63571 5.44 9.61405 5.40526 9.59238C5.00421 9.90191 4.50842 10.0969 3.96526 10.1217C3.90211 10.1217 3.82947 10.1217 3.68421 10.1217C3.53895 10.1217 3.46316 10.1217 3.40316 10.1217C2.10526 10.066 1.06632 9.04762 1 7.77548C1 7.71357 1 7.64238 1 7.5C1 7.35762 1 7.28333 1 7.22452C1.06316 5.95238 2.10211 4.93405 3.4 4.87214C3.46316 4.87214 3.53579 4.87214 3.68105 4.87214C3.82632 4.87214 3.90211 4.87214 3.96211 4.87214C4.50211 4.8969 4.99474 5.08881 5.39579 5.39524L5.42737 5.37667C5.82842 5.13524 6.34947 4.82881 6.75368 4.59667C7.0221 4.445 7.34105 4.26857 7.64737 4.10452C7.63789 4.03952 7.63158 3.97452 7.62842 3.90643C7.62842 3.84452 7.62842 3.77333 7.62842 3.63095H7.63158Z" fill="black"/>
</svg>
