<svg width="20" height="20" viewBox="0 0 20 20" fill="none" xmlns="http://www.w3.org/2000/svg">
<path d="M16.0887 11.5655C15.7141 11.9401 15.5406 12.4708 15.6239 12.9929L15.8268 14.2538L16.165 16.368C16.3783 17.7 14.9908 18.7077 13.7906 18.0938L10.9097 16.6195L10.7466 16.5363C10.2766 16.2952 9.71812 16.2952 9.24636 16.5363L7.66109 17.348L6.20417 18.0938C5.38725 18.5135 4.48014 18.177 4.0552 17.4989C3.85748 17.1815 3.76382 16.7912 3.83146 16.368L4.37261 12.9929C4.45586 12.4708 4.28415 11.9401 3.90778 11.5655L1.48651 9.15294C0.950572 8.61874 0.881195 7.86948 1.16217 7.27805C1.16217 7.26938 1.16911 7.26244 1.17258 7.25551C1.39459 6.80456 1.81952 6.45075 2.39362 6.36056L2.56186 6.33454L2.69194 6.31373L5.77229 5.83157C6.29436 5.75005 6.74531 5.42225 6.98466 4.95049L8.53177 1.90142C9.14229 0.699485 10.8594 0.699485 11.4682 1.90142L13.0153 4.95049C13.2546 5.42225 13.7056 5.75005 14.2294 5.83157L16.0696 6.11948L17.6063 6.36056C18.9384 6.56869 19.4691 8.20075 18.5134 9.15294L16.0922 11.5655H16.0887Z" fill="black"/>
<path d="M2.62243 5.70074L2.76986 7.11948L4.18862 7.26691L2.76986 7.41433L2.62243 8.8348L2.475 7.41433L1.0545 7.26691L2.475 7.11948L2.62243 5.70074Z" fill="url(#paint0_radial_68_1085)"/>
<path d="M17.6066 7.88968L17.6968 8.74647L18.5519 8.83493L17.6968 8.92338L17.6066 9.77844L17.5182 8.92338L16.6631 8.83493L17.5182 8.74647L17.6066 7.88968Z" fill="url(#paint1_radial_68_1085)"/>
<path d="M17.897 8.53897C17.3056 9.22926 16.6898 9.897 16.0655 10.5543L15.5954 11.0469C15.1514 11.5031 14.893 12.1378 14.9103 12.7744C14.9069 12.9599 14.9589 13.2392 14.9849 13.4248C15.0855 14.0769 15.1913 14.7932 15.2746 15.4453C15.3023 15.6639 15.3769 16.2449 15.4012 16.4582C15.4428 16.6976 15.3734 16.9768 15.2034 17.1572C15.0092 17.3428 14.7629 17.3341 14.5235 17.3601C14.4091 17.3601 14.2911 17.3671 14.1836 17.3254C14.4039 17.3566 14.6328 17.289 14.8427 17.2266C14.945 17.1901 15.0525 17.1451 15.0994 17.0739C15.311 16.8155 15.1982 16.4513 15.1358 16.1582C15.0074 15.5095 14.8774 14.7984 14.7629 14.1515C14.7057 13.7543 14.5721 13.1802 14.5617 12.783C14.5496 12.0563 14.8513 11.3331 15.3786 10.8353L15.8729 10.367C16.5337 9.74438 17.2015 9.13213 17.8953 8.54244L17.897 8.53897Z" fill="white"/>
<path d="M4.51322 10.9513C3.78996 10.3078 3.00773 9.5707 2.29835 8.90469C2.18908 8.78675 2.03645 8.67402 1.92892 8.54394C1.44328 7.94384 1.86995 7.08531 2.63136 7.04369C3.13088 6.95523 4.82889 6.68293 5.35789 6.59795L5.85393 6.52163C6.3205 6.45399 6.75757 6.24413 7.10619 5.92673C7.54154 5.56598 7.86067 4.76989 8.13645 4.28079C8.45038 3.68936 8.76951 3.09967 9.09038 2.51171L9.21353 2.29144C9.48583 1.68613 10.4328 1.66185 10.6878 2.29144C10.4502 1.83876 9.77722 1.77285 9.46676 2.15962C9.38524 2.25501 9.30025 2.47008 9.24301 2.58802C8.83542 3.46389 8.36539 4.43168 7.93872 5.30582C7.5849 6.11752 6.78879 6.73149 5.90597 6.8581L5.40992 6.93789C4.79593 7.03154 3.14649 7.28303 2.55331 7.36455C2.09022 7.3975 1.81965 8.01668 2.12317 8.38437C2.19602 8.48497 2.3712 8.63933 2.45792 8.74166C3.13088 9.44583 3.86281 10.2298 4.51322 10.9495V10.9513Z" fill="white"/>
<path d="M16.0887 11.5655C15.7141 11.9401 15.5406 12.4708 15.6239 12.9929L15.8268 14.2538L16.165 16.368C16.3783 17.7 14.9908 18.7077 13.7906 18.0938L10.9097 16.6195L10.7466 16.5363C10.2766 16.2952 9.71812 16.2952 9.24636 16.5363L7.66109 17.348L6.20417 18.0938C5.38725 18.5135 4.48014 18.177 4.0552 17.4989C3.85748 17.1815 3.76382 16.7912 3.83146 16.368L4.37261 12.9929C4.45586 12.4708 4.28415 11.9401 3.90778 11.5655L1.48651 9.15294C0.950572 8.61874 0.881195 7.86948 1.16217 7.27805C1.16217 7.26938 1.16911 7.26244 1.17258 7.25551C1.39459 6.80456 1.81952 6.45075 2.39362 6.36056L2.56186 6.33454L2.69194 6.31373L5.77229 5.83157C6.29436 5.75005 6.74531 5.42225 6.98466 4.95049L8.53177 1.90142C9.14229 0.699485 10.8594 0.699485 11.4682 1.90142L13.0153 4.95049C13.2546 5.42225 13.7056 5.75005 14.2294 5.83157L16.0696 6.11948L17.6063 6.36056C18.9384 6.56869 19.4691 8.20075 18.5134 9.15294L16.0922 11.5655H16.0887Z" stroke="black" stroke-width="0.500097" stroke-miterlimit="10"/>
<defs>
<radialGradient id="paint0_radial_68_1085" cx="0" cy="0" r="1" gradientUnits="userSpaceOnUse" gradientTransform="translate(2.62243 7.26691) scale(1.56793 1.5679)">
<stop offset="0.08" stop-color="white"/>
<stop offset="1" stop-color="white" stop-opacity="0"/>
</radialGradient>
<radialGradient id="paint1_radial_68_1085" cx="0" cy="0" r="1" gradientUnits="userSpaceOnUse" gradientTransform="translate(17.6066 8.83493) scale(0.943531 0.943512)">
<stop offset="0.08" stop-color="white"/>
<stop offset="1" stop-color="white" stop-opacity="0"/>
</radialGradient>
</defs>
</svg>
